<svg width="512" height="512" viewBox="0 0 512 512" fill="none" xmlns="http://www.w3.org/2000/svg">
<path fill-rule="evenodd" clip-rule="evenodd" d="M0 28.0292C0 12.5491 12.5491 0 28.0292 0H128.937C117.726 13.7032 92.4994 49.7051 81.2877 84.0876C76.6162 104.642 69.1417 143.883 85.0249 184.993C88.7591 192.467 99.9708 213.956 127.066 260.672C128.681 263.281 130.875 266.534 133.464 270.375C150.347 295.417 184.058 345.421 184.058 404.555C184.058 413.898 179.387 470.891 164.438 512H28.0292C12.5491 512 0 499.451 0 483.971V28.0292ZM136.409 111.182C137.904 62.5985 149.489 16.8175 155.095 0H320.762C309.55 13.7032 284.324 49.7051 273.113 84.0876C268.441 104.642 260.967 143.883 276.85 184.993C280.584 192.467 291.796 213.956 318.891 260.672C320.506 263.281 322.699 266.534 325.289 270.375C342.171 295.417 375.883 345.421 375.883 404.555C375.883 413.898 371.212 470.891 356.263 512H190.599C215.513 483.348 260.485 411.469 241.051 353.168C221.618 294.867 198.073 257.246 188.73 245.723C170.667 221.119 134.914 159.766 136.409 111.182ZM382.423 512H483.971C499.451 512 512 499.451 512 483.971V28.0292C512 12.5491 499.451 0 483.971 0H346.92C341.314 16.8175 329.728 62.5985 328.234 111.182C326.739 159.766 362.491 221.119 380.555 245.723C389.898 257.246 413.442 294.867 432.876 353.168C452.309 411.469 407.338 483.348 382.423 512Z" fill="#FFBB00"/>
</svg>
