<svg width="15" height="15" viewBox="0 0 15 15" fill="none" xmlns="http://www.w3.org/2000/svg">
<g clip-path="url(#clip0_167_21)">
<mask id="mask0_167_21" style="mask-type:luminance" maskUnits="userSpaceOnUse" x="0" y="0" width="15" height="15">
<path d="M15 0H0V15H15V0Z" fill="white"/>
</mask>
<g mask="url(#mask0_167_21)">
<mask id="mask1_167_21" style="mask-type:luminance" maskUnits="userSpaceOnUse" x="0" y="0" width="15" height="15">
<path d="M15 0H0V15H15V0Z" fill="white"/>
</mask>
<g mask="url(#mask1_167_21)">
<path d="M14.6748 6.8262C14.8192 6.68652 14.9212 6.50901 14.9694 6.314C15.0175 6.11899 15.0098 5.91437 14.947 5.72358C14.8856 5.53223 14.7716 5.36204 14.618 5.23252C14.4643 5.10301 14.2773 5.0194 14.0783 4.99129L10.4464 4.46356C10.3702 4.45249 10.2978 4.42306 10.2355 4.37779C10.1733 4.33253 10.123 4.2728 10.0889 4.20375L8.46517 0.913005C8.3769 0.732538 8.23958 0.580583 8.06895 0.474551C7.89833 0.368518 7.7013 0.312698 7.50037 0.313485C7.29957 0.312754 7.10259 0.368602 6.93202 0.474631C6.76145 0.58066 6.62419 0.732583 6.53595 0.913005L4.9119 4.20405C4.84282 4.34432 4.70886 4.44133 4.55417 4.46386L0.922215 4.9916C0.723249 5.0197 0.536228 5.10331 0.382594 5.23283C0.228959 5.36234 0.114928 5.53253 0.0535734 5.72388C-0.0092074 5.91467 -0.0169789 6.1193 0.0311491 6.3143C0.0792772 6.50931 0.181358 6.68682 0.3257 6.8265L2.95355 9.38797C3.06559 9.49732 3.11695 9.65468 3.09052 9.8085L2.47058 13.4255C2.44253 13.5791 2.44903 13.7371 2.48959 13.888C2.53017 14.0388 2.6038 14.1788 2.70515 14.2977C3.02534 14.6783 3.58431 14.7941 4.03125 14.5593L7.27934 12.8514C7.34779 12.8165 7.42355 12.7983 7.50037 12.7983C7.57725 12.7983 7.653 12.8165 7.72147 12.8514L10.9699 14.5593C11.1239 14.6414 11.2958 14.6845 11.4703 14.6845C11.7878 14.6845 12.0887 14.5433 12.2956 14.2977C12.397 14.1788 12.4707 14.0389 12.5113 13.888C12.5518 13.7371 12.5583 13.5791 12.5303 13.4255L11.91 9.8085C11.897 9.73253 11.9027 9.6546 11.9266 9.58132C11.9504 9.50805 11.9917 9.44167 12.0469 9.38797L14.6748 6.8262Z" fill="#FFAD32"/>
</g>
</g>
</g>
<defs>
<clipPath id="clip0_167_21">
<rect width="15" height="15" fill="white"/>
</clipPath>
</defs>
</svg>
