<svg width="22" height="22" viewBox="0 0 22 22" fill="none" xmlns="http://www.w3.org/2000/svg">
<g clip-path="url(#clip0_603_19)">
<path d="M14.8231 0.55501C14.1614 0.722588 13.4954 1.16087 13.0743 1.70228C12.8896 1.9386 12.5415 2.59173 12.5415 2.69915C12.5415 2.73782 11.1364 2.75071 6.64619 2.75071H0.746582L0.531738 2.85384C0.278223 2.96985 0.200879 3.05149 0.0848633 3.30931C-0.0741211 3.65735 -0.0010742 4.03548 0.278223 4.31478C0.561816 4.59407 0.102051 4.57689 6.61611 4.58978L12.5286 4.59837L12.606 4.80462C12.9712 5.7929 13.9079 6.59212 14.9563 6.80696C16.4259 7.10774 17.9599 6.27845 18.5228 4.87337L18.6259 4.61985L19.9579 4.59837C21.3931 4.57259 21.4489 4.56399 21.7067 4.32337C21.8657 4.17728 21.9946 3.88939 21.9946 3.67454C21.9946 3.48548 21.8399 3.11165 21.711 2.99993C21.6638 2.96126 21.5392 2.88821 21.436 2.84095C21.2556 2.75931 21.1567 2.75071 19.9407 2.75071H18.6431L18.5958 2.6304C18.4454 2.26517 18.222 1.86556 18.02 1.62064C17.6419 1.16087 17.0446 0.765557 16.4431 0.580792C16.0864 0.469073 15.2185 0.456182 14.8231 0.55501ZM16.1294 2.42845C16.7095 2.68196 17.0317 3.28782 16.9157 3.91087C16.8599 4.21595 16.7567 4.40931 16.5376 4.62845C16.2497 4.92064 16.0263 5.00657 15.5708 5.00657C15.2485 5.00657 15.1497 4.98939 14.9907 4.90345C14.7286 4.76595 14.4923 4.53392 14.3548 4.2761C14.256 4.09134 14.2388 4.0097 14.2388 3.67454C14.2388 3.21907 14.3247 2.99564 14.6169 2.70774C14.8317 2.4886 14.9864 2.40696 15.2915 2.33821C15.588 2.27376 15.8501 2.30384 16.1294 2.42845Z" fill="white"/>
<path d="M6.01025 7.82103C4.95752 7.96712 4.03799 8.62884 3.58682 9.56126C3.48369 9.77181 3.38916 9.98235 3.37197 10.021C3.35049 10.0941 3.24736 10.0984 2.02705 10.0984C0.540332 10.0984 0.48877 10.1113 0.222363 10.412C-0.0741211 10.7515 -0.0741211 11.2499 0.222363 11.5894C0.48877 11.8902 0.540332 11.9031 2.02705 11.9031C3.24736 11.9031 3.35049 11.9074 3.37197 11.9761C3.38916 12.0191 3.48369 12.2296 3.58682 12.4402C3.98213 13.2566 4.74697 13.8753 5.6708 14.1202C6.00166 14.2062 6.69775 14.2191 7.06299 14.1417C8.07275 13.9269 8.94072 13.1921 9.36611 12.1867L9.47354 11.9245L15.4247 11.9031C22.0505 11.8773 21.4876 11.9074 21.7712 11.5851C22.0634 11.2499 22.0634 10.7515 21.7712 10.4163C21.4876 10.0941 22.0505 10.1242 15.4247 10.0984L9.47354 10.0769L9.36611 9.81478C9.02236 9.00696 8.43369 8.4011 7.64736 8.05306C7.1919 7.8511 6.4915 7.75228 6.01025 7.82103ZM6.7665 9.68587C7.03291 9.75462 7.33799 9.95657 7.49268 10.1628C7.85791 10.6398 7.85791 11.3617 7.49268 11.8429C7.33369 12.0492 6.98135 12.2726 6.70205 12.3327C5.59346 12.5863 4.67393 11.396 5.19814 10.3777C5.49893 9.79329 6.13057 9.51399 6.7665 9.68587Z" fill="white"/>
<path d="M14.9263 15.1988C13.9036 15.4136 12.9626 16.2214 12.606 17.1968L12.5286 17.4031L6.61611 17.4116C0.102051 17.4245 0.561816 17.4074 0.278223 17.6866C-0.0010742 17.9659 -0.0741211 18.3441 0.0848633 18.6921C0.200879 18.9499 0.278223 19.0316 0.531738 19.1476L0.746582 19.2507H6.64619C11.1364 19.2507 12.5415 19.2636 12.5415 19.3023C12.5415 19.4097 12.8895 20.0628 13.0743 20.2991C13.5126 20.862 14.2302 21.3175 14.922 21.4679C15.3302 21.5538 16.0864 21.5324 16.4431 21.4206C17.0403 21.2359 17.6376 20.8406 18.02 20.3808C18.222 20.1359 18.4454 19.7363 18.5958 19.3667L18.6431 19.2507H19.9407C21.2169 19.2507 21.247 19.2464 21.4575 19.1476C21.711 19.0316 21.7884 18.9499 21.9044 18.6921C22.1106 18.2366 21.9044 17.7124 21.436 17.4933C21.3114 17.4374 21.0536 17.4202 19.9579 17.4031L18.6259 17.3816L18.5228 17.1281C17.9599 15.7187 16.4001 14.8851 14.9263 15.1988ZM16.1595 17.0937C16.3958 17.2097 16.6837 17.4847 16.7954 17.7038C16.9802 18.0648 16.9802 18.5847 16.7997 18.9456C16.456 19.6159 15.6138 19.8909 14.9478 19.5515C14.7286 19.4398 14.4536 19.1519 14.3376 18.9156C14.1958 18.6234 14.1958 18.0261 14.3419 17.7468C14.5224 17.3988 14.836 17.1324 15.2056 17.012C15.4161 16.9433 15.9446 16.9906 16.1595 17.0937Z" fill="white"/>
</g>
<defs>
<clipPath id="clip0_603_19">
<rect width="22" height="22" fill="white"/>
</clipPath>
</defs>
</svg>
